<svg width="50" height="50" xmlns="http://www.w3.org/2000/svg">

 <g>
  <title>background</title>
  <rect fill="none" id="canvas_background" height="52" width="52" y="-1" x="-1"/>
 </g>
 <g>
  <title>Layer 1</title>
  <path id="svg_1" fill="none" d="m103.999033,60.249438l24,0l0,24l-24,0l0,-24z"/>
  <path fill="#ffd700" id="svg_2" d="m35.749899,40.769906l6.18,3.73c-0.54667,-2.34333 -1.09333,-4.68667 -1.64,-7.03l5.46,-4.73l-7.19,-0.61l-2.81,-6.63l-2.81,6.63l-7.19,0.61l5.46,4.73l-1.64,7.03l6.18,-3.73z"/>
  <path fill="#ffd700" id="svg_3" d="m13.250109,40.769906l6.18,3.73c-0.54667,-2.34333 -1.09333,-4.68667 -1.64,-7.03l5.46,-4.73l-7.19,-0.61l-2.81,-6.63l-2.81,6.63l-7.19,0.61l5.46,4.73l-1.64,7.03l6.18,-3.73z"/>
  <path fill="#ffd700" id="svg_4" d="m25,19.270106l6.18,3.73c-0.54667,-2.34333 -1.09333,-4.68667 -1.64,-7.03l5.46,-4.73l-7.19,-0.61l-2.81,-6.63l-2.81,6.63l-7.19,0.61l5.46,4.73l-1.64,7.03l6.18,-3.73z"/>
 </g>
</svg>